<svg width="16" height="16" viewBox="0 0 16 16" fill="none" xmlns="http://www.w3.org/2000/svg">
<g clip-path="url(#clip0)">
<path d="M8 1.00098C4.13441 1.00098 1 4.13477 1 8.00067C1 11.8666 4.1341 15.0004 8 15.0004C11.8662 15.0004 15 11.8666 15 8.00067C15 4.13477 11.8662 1.00098 8 1.00098ZM8 3.09397C9.2791 3.09397 10.3156 4.13078 10.3156 5.40926C10.3156 6.68805 9.2791 7.72456 8 7.72456C6.72151 7.72456 5.68501 6.68805 5.68501 5.40926C5.68501 4.13078 6.72151 3.09397 8 3.09397ZM7.99846 13.1703C6.72274 13.1703 5.55434 12.7057 4.65312 11.9367C4.43358 11.7494 4.3069 11.4748 4.3069 11.1867C4.3069 9.89011 5.35632 8.85238 6.65325 8.85238H9.34736C10.6446 8.85238 11.69 9.89011 11.69 11.1867C11.69 11.4751 11.564 11.7491 11.3441 11.9364C10.4432 12.7057 9.27449 13.1703 7.99846 13.1703Z" fill="white"/>
</g>
<defs>
<clipPath id="clip0">
<rect width="14" height="14" fill="white" transform="translate(1 1)"/>
</clipPath>
</defs>
</svg>
